<mxfile host="Electron" agent="Mozilla/5.0 (Macintosh; Intel Mac OS X 10_15_7) AppleWebKit/537.36 (KHTML, like Gecko) draw.io/24.7.8 Chrome/128.0.6613.36 Electron/32.0.1 Safari/537.36" version="24.7.8">
  <diagram name="Page-1" id="944EbbMdyYe226U7JajN">
    <mxGraphModel dx="1306" dy="834" grid="1" gridSize="10" guides="1" tooltips="1" connect="1" arrows="1" fold="1" page="1" pageScale="1" pageWidth="827" pageHeight="1169" math="0" shadow="0">
      <root>
        <mxCell id="0" />
        <mxCell id="1" parent="0" />
        <mxCell id="jve-aWXIpDxfQJ_2T9Z7-1" value="&lt;b&gt;Acteur&lt;/b&gt;" style="shape=umlActor;verticalLabelPosition=bottom;verticalAlign=top;html=1;outlineConnect=0;" vertex="1" parent="1">
          <mxGeometry x="70" y="40" width="30" height="60" as="geometry" />
        </mxCell>
        <mxCell id="jve-aWXIpDxfQJ_2T9Z7-2" value="&lt;b&gt;Objet&lt;/b&gt;" style="rounded=0;whiteSpace=wrap;html=1;" vertex="1" parent="1">
          <mxGeometry x="310" y="40" width="120" height="60" as="geometry" />
        </mxCell>
        <mxCell id="jve-aWXIpDxfQJ_2T9Z7-4" value=":Object" style="shape=umlLifeline;perimeter=lifelinePerimeter;whiteSpace=wrap;html=1;container=1;dropTarget=0;collapsible=0;recursiveResize=0;outlineConnect=0;portConstraint=eastwest;newEdgeStyle={&quot;curved&quot;:0,&quot;rounded&quot;:0};strokeWidth=2;" vertex="1" parent="1">
          <mxGeometry x="570" y="40" width="100" height="300" as="geometry" />
        </mxCell>
        <mxCell id="jve-aWXIpDxfQJ_2T9Z7-5" value="" style="shape=umlLifeline;perimeter=lifelinePerimeter;whiteSpace=wrap;html=1;container=1;dropTarget=0;collapsible=0;recursiveResize=0;outlineConnect=0;portConstraint=eastwest;newEdgeStyle={&quot;curved&quot;:0,&quot;rounded&quot;:0};participant=umlActor;strokeWidth=2;" vertex="1" parent="1">
          <mxGeometry x="720" y="40" width="20" height="300" as="geometry" />
        </mxCell>
        <mxCell id="jve-aWXIpDxfQJ_2T9Z7-6" value="&lt;b&gt;Ligne de vie&lt;/b&gt;" style="text;html=1;align=center;verticalAlign=middle;whiteSpace=wrap;rounded=0;" vertex="1" parent="1">
          <mxGeometry x="630" y="360" width="80" height="30" as="geometry" />
        </mxCell>
        <mxCell id="jve-aWXIpDxfQJ_2T9Z7-7" value="" style="endArrow=none;dashed=1;html=1;rounded=0;strokeWidth=2;" edge="1" parent="1" source="jve-aWXIpDxfQJ_2T9Z7-9">
          <mxGeometry width="50" height="50" relative="1" as="geometry">
            <mxPoint x="80" y="446" as="sourcePoint" />
            <mxPoint x="80" y="306" as="targetPoint" />
          </mxGeometry>
        </mxCell>
        <mxCell id="jve-aWXIpDxfQJ_2T9Z7-10" value="" style="endArrow=none;dashed=1;html=1;rounded=0;strokeWidth=2;" edge="1" parent="1" target="jve-aWXIpDxfQJ_2T9Z7-9">
          <mxGeometry width="50" height="50" relative="1" as="geometry">
            <mxPoint x="80" y="446" as="sourcePoint" />
            <mxPoint x="80" y="306" as="targetPoint" />
          </mxGeometry>
        </mxCell>
        <mxCell id="jve-aWXIpDxfQJ_2T9Z7-9" value="" style="html=1;points=[[0,0,0,0,5],[0,1,0,0,-5],[1,0,0,0,5],[1,1,0,0,-5]];perimeter=orthogonalPerimeter;outlineConnect=0;targetShapes=umlLifeline;portConstraint=eastwest;newEdgeStyle={&quot;curved&quot;:0,&quot;rounded&quot;:0};" vertex="1" parent="1">
          <mxGeometry x="75" y="336" width="10" height="80" as="geometry" />
        </mxCell>
        <mxCell id="jve-aWXIpDxfQJ_2T9Z7-11" value="&lt;b&gt;Barre d&#39;activation&lt;/b&gt;" style="text;html=1;align=center;verticalAlign=middle;whiteSpace=wrap;rounded=0;" vertex="1" parent="1">
          <mxGeometry x="27.5" y="466" width="105" height="30" as="geometry" />
        </mxCell>
        <mxCell id="jve-aWXIpDxfQJ_2T9Z7-12" value="" style="endArrow=block;html=1;rounded=0;strokeWidth=2;endFill=1;" edge="1" parent="1">
          <mxGeometry width="50" height="50" relative="1" as="geometry">
            <mxPoint x="280" y="175" as="sourcePoint" />
            <mxPoint x="480" y="175" as="targetPoint" />
          </mxGeometry>
        </mxCell>
        <mxCell id="jve-aWXIpDxfQJ_2T9Z7-13" value="&lt;b&gt;Message synchrone&lt;/b&gt;" style="edgeLabel;html=1;align=center;verticalAlign=middle;resizable=0;points=[];" vertex="1" connectable="0" parent="jve-aWXIpDxfQJ_2T9Z7-12">
          <mxGeometry x="-0.35" y="2" relative="1" as="geometry">
            <mxPoint x="25" y="22" as="offset" />
          </mxGeometry>
        </mxCell>
        <mxCell id="jve-aWXIpDxfQJ_2T9Z7-22" value="method()" style="edgeLabel;html=1;align=center;verticalAlign=middle;resizable=0;points=[];" vertex="1" connectable="0" parent="jve-aWXIpDxfQJ_2T9Z7-12">
          <mxGeometry x="-0.1" y="3" relative="1" as="geometry">
            <mxPoint x="10" y="-6" as="offset" />
          </mxGeometry>
        </mxCell>
        <mxCell id="jve-aWXIpDxfQJ_2T9Z7-14" value="" style="endArrow=open;html=1;rounded=0;strokeWidth=2;endFill=0;" edge="1" parent="1">
          <mxGeometry width="50" height="50" relative="1" as="geometry">
            <mxPoint x="280" y="245" as="sourcePoint" />
            <mxPoint x="480" y="245" as="targetPoint" />
          </mxGeometry>
        </mxCell>
        <mxCell id="jve-aWXIpDxfQJ_2T9Z7-15" value="&lt;b&gt;Message asynchrone&lt;/b&gt;" style="edgeLabel;html=1;align=center;verticalAlign=middle;resizable=0;points=[];" vertex="1" connectable="0" parent="jve-aWXIpDxfQJ_2T9Z7-14">
          <mxGeometry x="-0.35" y="2" relative="1" as="geometry">
            <mxPoint x="25" y="22" as="offset" />
          </mxGeometry>
        </mxCell>
        <mxCell id="jve-aWXIpDxfQJ_2T9Z7-16" value="" style="endArrow=none;html=1;rounded=0;strokeWidth=2;endFill=0;dashed=1;startArrow=open;startFill=0;" edge="1" parent="1">
          <mxGeometry width="50" height="50" relative="1" as="geometry">
            <mxPoint x="280" y="384" as="sourcePoint" />
            <mxPoint x="480" y="384" as="targetPoint" />
          </mxGeometry>
        </mxCell>
        <mxCell id="jve-aWXIpDxfQJ_2T9Z7-17" value="&lt;b&gt;Message de réponse&lt;/b&gt;" style="edgeLabel;html=1;align=center;verticalAlign=middle;resizable=0;points=[];" vertex="1" connectable="0" parent="jve-aWXIpDxfQJ_2T9Z7-16">
          <mxGeometry x="-0.35" y="2" relative="1" as="geometry">
            <mxPoint x="25" y="22" as="offset" />
          </mxGeometry>
        </mxCell>
        <mxCell id="jve-aWXIpDxfQJ_2T9Z7-18" value="" style="endArrow=none;html=1;rounded=0;strokeWidth=2;endFill=0;dashed=1;startArrow=open;startFill=0;" edge="1" parent="1">
          <mxGeometry width="50" height="50" relative="1" as="geometry">
            <mxPoint x="280" y="466" as="sourcePoint" />
            <mxPoint x="480" y="466" as="targetPoint" />
          </mxGeometry>
        </mxCell>
        <mxCell id="jve-aWXIpDxfQJ_2T9Z7-19" value="&lt;b&gt;Message de retour asynchrone&lt;/b&gt;" style="edgeLabel;html=1;align=center;verticalAlign=middle;resizable=0;points=[];" vertex="1" connectable="0" parent="jve-aWXIpDxfQJ_2T9Z7-18">
          <mxGeometry x="-0.35" y="2" relative="1" as="geometry">
            <mxPoint x="25" y="22" as="offset" />
          </mxGeometry>
        </mxCell>
        <mxCell id="jve-aWXIpDxfQJ_2T9Z7-20" value="" style="endArrow=open;html=1;rounded=0;strokeWidth=2;endFill=0;dashed=1;" edge="1" parent="1">
          <mxGeometry width="50" height="50" relative="1" as="geometry">
            <mxPoint x="280" y="316" as="sourcePoint" />
            <mxPoint x="480" y="316" as="targetPoint" />
          </mxGeometry>
        </mxCell>
        <mxCell id="jve-aWXIpDxfQJ_2T9Z7-21" value="&lt;b&gt;Message de création&lt;/b&gt;" style="edgeLabel;html=1;align=center;verticalAlign=middle;resizable=0;points=[];" vertex="1" connectable="0" parent="jve-aWXIpDxfQJ_2T9Z7-20">
          <mxGeometry x="-0.35" y="2" relative="1" as="geometry">
            <mxPoint x="25" y="22" as="offset" />
          </mxGeometry>
        </mxCell>
        <mxCell id="jve-aWXIpDxfQJ_2T9Z7-23" value="method()" style="edgeLabel;html=1;align=center;verticalAlign=middle;resizable=0;points=[];" vertex="1" connectable="0" parent="1">
          <mxGeometry x="380" y="236" as="geometry" />
        </mxCell>
        <mxCell id="jve-aWXIpDxfQJ_2T9Z7-24" value="&amp;lt;&amp;lt; object &amp;gt;&amp;gt;" style="edgeLabel;html=1;align=center;verticalAlign=middle;resizable=0;points=[];" vertex="1" connectable="0" parent="1">
          <mxGeometry x="380" y="306" as="geometry">
            <mxPoint x="7" y="-1" as="offset" />
          </mxGeometry>
        </mxCell>
        <mxCell id="jve-aWXIpDxfQJ_2T9Z7-25" value="&lt;b&gt;Alternative&lt;/b&gt;" style="shape=umlFrame;whiteSpace=wrap;html=1;pointerEvents=0;recursiveResize=0;container=1;collapsible=0;width=170;" vertex="1" parent="1">
          <mxGeometry x="35" y="560" width="290" height="200" as="geometry" />
        </mxCell>
        <mxCell id="jve-aWXIpDxfQJ_2T9Z7-26" value="&lt;b&gt;[condition]&lt;/b&gt;" style="text;html=1;" vertex="1" parent="jve-aWXIpDxfQJ_2T9Z7-25">
          <mxGeometry width="100" height="20" relative="1" as="geometry">
            <mxPoint x="20" y="40" as="offset" />
          </mxGeometry>
        </mxCell>
        <mxCell id="jve-aWXIpDxfQJ_2T9Z7-27" value="&lt;b&gt;[else]&lt;/b&gt;" style="line;strokeWidth=1;dashed=1;labelPosition=center;verticalLabelPosition=bottom;align=left;verticalAlign=top;spacingLeft=20;spacingTop=15;html=1;whiteSpace=wrap;" vertex="1" parent="jve-aWXIpDxfQJ_2T9Z7-25">
          <mxGeometry y="110" width="290" height="10" as="geometry" />
        </mxCell>
        <mxCell id="jve-aWXIpDxfQJ_2T9Z7-28" value="&lt;b&gt;Loop&lt;/b&gt;" style="shape=umlFrame;whiteSpace=wrap;html=1;pointerEvents=0;recursiveResize=0;container=1;collapsible=0;width=160;" vertex="1" parent="1">
          <mxGeometry x="385" y="560" width="340" height="200" as="geometry" />
        </mxCell>
        <mxCell id="jve-aWXIpDxfQJ_2T9Z7-32" value="&lt;b&gt;[condition]&lt;/b&gt;" style="text;html=1;" vertex="1" parent="jve-aWXIpDxfQJ_2T9Z7-28">
          <mxGeometry x="20" y="40" width="100" height="20" as="geometry" />
        </mxCell>
        <mxCell id="jve-aWXIpDxfQJ_2T9Z7-33" value="" style="shape=umlDestroy;html=1;" vertex="1" parent="1">
          <mxGeometry x="65" y="175" width="30" height="30" as="geometry" />
        </mxCell>
        <mxCell id="jve-aWXIpDxfQJ_2T9Z7-34" value="&lt;b&gt;Fin de vie&lt;/b&gt;" style="text;html=1;align=center;verticalAlign=middle;whiteSpace=wrap;rounded=0;" vertex="1" parent="1">
          <mxGeometry x="27.5" y="220" width="105" height="30" as="geometry" />
        </mxCell>
        <mxCell id="jve-aWXIpDxfQJ_2T9Z7-35" value="method()" style="edgeLabel;html=1;align=center;verticalAlign=middle;resizable=0;points=[];" vertex="1" connectable="0" parent="1">
          <mxGeometry x="370" y="373" as="geometry" />
        </mxCell>
        <mxCell id="jve-aWXIpDxfQJ_2T9Z7-36" value="method()" style="edgeLabel;html=1;align=center;verticalAlign=middle;resizable=0;points=[];" vertex="1" connectable="0" parent="1">
          <mxGeometry x="370" y="455" as="geometry" />
        </mxCell>
      </root>
    </mxGraphModel>
  </diagram>
</mxfile>
